<svg viewBox="0 0 680 106" width="200" height="33" xmlns="http://www.w3.org/2000/svg">
  <path d="M105.687 52.843c0 29.183-23.661 52.844-52.844 52.844 21.887 0 39.633-17.746 39.633-39.633 0-21.887-17.746-39.632-39.633-39.632-21.886 0-39.632 17.745-39.632 39.632 0 21.887 17.746 39.633 39.632 39.633C23.661 105.687 0 82.026 0 52.843 0 23.661 23.661 0 52.843 0c29.183 0 52.844 23.661 52.844 52.843Zm-52.844 0c-14.591 0-26.421 11.831-26.421 26.422 0 13.682 10.437 24.803 23.757 26.151-6.018-1.232-10.546-6.554-10.546-12.94 0-7.296 5.915-13.211 13.21-13.211 7.296 0 13.211 5.915 13.211 13.211 0 6.386-4.528 11.708-10.547 12.94 13.321-1.348 23.758-12.469 23.758-26.151 0-14.591-11.83-26.422-26.422-26.422ZM167.463 12.406v10.781h-18.438v52.125h-10.781V23.187h-18.5V12.406h47.719Zm15.718 62.906H172.4V30.375h10.781v44.937ZM172.4 23.187V12.406h10.781v10.781H172.4Zm48.625 38.719 7.656 7.656c-2.166 2.146-4.687 3.833-7.562 5.063-2.875 1.229-5.959 1.843-9.25 1.843-3.292 0-6.386-.614-9.281-1.843-2.875-1.23-5.386-2.917-7.532-5.063A23.847 23.847 0 0 1 189.963 62c-1.23-2.875-1.844-5.927-1.844-9.157 0-3.291.614-6.375 1.844-9.25a23.847 23.847 0 0 1 5.093-7.562c2.146-2.146 4.657-3.833 7.532-5.063 2.895-1.229 5.989-1.843 9.281-1.843 3.291 0 6.375.614 9.25 1.843 2.875 1.23 5.396 2.917 7.562 5.063l-7.656 7.656c-2.521-2.521-5.573-3.781-9.156-3.781-3.479 0-6.542 1.26-9.188 3.781-2.5 2.5-3.75 5.552-3.75 9.156 0 3.542 1.25 6.563 3.75 9.063 1.271 1.271 2.688 2.219 4.25 2.844 1.542.625 3.188.937 4.938.937 3.646 0 6.698-1.26 9.156-3.781Zm51.688-31.531-22.469 22.468 22.469 22.469h-15.188l-14.937-14.906v14.906h-10.782V12.406h10.782v32.781l14.843-14.812h15.282Zm41.625 27.843h-34.875a11.083 11.083 0 0 0 2.593 3.688c1.271 1.271 2.677 2.219 4.219 2.844 1.563.625 3.219.937 4.969.937 2.437 0 4.625-.562 6.562-1.687l11.219 4.468c-2.146 2.521-4.75 4.49-7.812 5.907-3.063 1.395-6.386 2.093-9.969 2.093-3.313 0-6.406-.614-9.281-1.843-2.875-1.23-5.386-2.917-7.532-5.063A23.847 23.847 0 0 1 269.338 62c-1.23-2.875-1.844-5.927-1.844-9.157 0-3.291.614-6.375 1.844-9.25a23.847 23.847 0 0 1 5.093-7.562c2.146-2.146 4.657-3.833 7.532-5.063 2.875-1.229 5.968-1.843 9.281-1.843 3.291 0 6.375.614 9.25 1.843 2.875 1.23 5.385 2.917 7.531 5.063a23.833 23.833 0 0 1 5.094 7.562c1.229 2.875 1.844 5.959 1.844 9.25 0 1.917-.209 3.709-.625 5.375Zm-23.094-18.312c-3.479 0-6.542 1.26-9.188 3.781-1.125 1.125-1.989 2.375-2.593 3.75h23.531c-.584-1.375-1.448-2.625-2.594-3.75-2.521-2.521-5.573-3.781-9.156-3.781Zm49.687 24.625 2.688 10.781h-9.875c-2.042 0-3.959-.385-5.75-1.156a15.054 15.054 0 0 1-4.688-3.219c-1.312-1.333-2.354-2.906-3.125-4.719-.791-1.791-1.187-3.708-1.187-5.75V21.281l10.781-2.688V35.75h6.313l2.687 10.812h-9v13.906c0 1.146.396 2.105 1.188 2.875.77.792 1.697 1.188 2.781 1.188h7.187Zm75.5-52.219h11.782v62.906h-10.782V30.625L396.65 62.718l-20.656-32.093v44.593h-10.781V12.312h11.781l19.656 30.563 19.781-30.563Zm53.407 17.969h10.781v45.031h-10.781V52.843c0-3.604-1.261-6.656-3.782-9.156-2.521-2.521-5.573-3.781-9.156-3.781-1.75 0-3.417.323-5 .969a12.99 12.99 0 0 0-4.187 2.812c-2.521 2.5-3.782 5.552-3.782 9.156 0 3.542 1.261 6.563 3.782 9.063a11.6 11.6 0 0 0 4.187 2.844c1.583.625 3.25.937 5 .937 1.792 0 3.406-.302 4.844-.906l3.875 9.625c-2.771 1.375-5.979 2.062-9.625 2.062-3.292 0-6.334-.614-9.125-1.843-2.792-1.23-5.209-2.917-7.25-5.063-2.021-2.167-3.604-4.687-4.75-7.562s-1.719-5.927-1.719-9.157c0-3.291.573-6.375 1.719-9.25 1.146-2.875 2.729-5.395 4.75-7.562 2.041-2.146 4.458-3.833 7.25-5.063 2.791-1.229 5.833-1.843 9.125-1.843 2.937 0 5.541.448 7.812 1.343 2.271.896 4.282 2.032 6.032 3.407v-3.594Zm34.593 17.156c.729.188 1.927.615 3.594 1.281 1.688.646 3.417 1.552 5.188 2.719 1.75 1.167 3.291 2.625 4.625 4.375 1.312 1.729 1.968 3.792 1.968 6.188 0 2.104-.343 4.02-1.031 5.75a13.28 13.28 0 0 1-3 4.593c-1.333 1.313-2.958 2.334-4.875 3.063-1.917.708-4.073 1.062-6.469 1.062-3.646 0-7.041-.656-10.187-1.968-3.146-1.313-5.677-2.927-7.594-4.844l7.438-7.469c1.562 1.854 3.229 3.052 5 3.594 1.77.542 3.25.812 4.437.812 1.875 0 3.26-.364 4.156-1.093.896-.709 1.344-1.573 1.344-2.594 0-.708-.302-1.333-.906-1.875a7.991 7.991 0 0 0-2.094-1.344 13.668 13.668 0 0 0-2.5-.875 24.675 24.675 0 0 1-2.062-.594 157.33 157.33 0 0 1-3.625-1.25c-1.709-.604-3.448-1.468-5.219-2.593a18.167 18.167 0 0 1-4.625-4.313c-1.313-1.75-1.969-3.854-1.969-6.312 0-2.5.427-4.667 1.281-6.5.875-1.834 2.032-3.344 3.469-4.532a13.83 13.83 0 0 1 4.938-2.656 19.052 19.052 0 0 1 5.75-.875c3.062 0 5.656.365 7.781 1.094 2.125.708 3.875 1.489 5.25 2.344 1.562 1.02 2.885 2.156 3.969 3.406l-7.563 7.562c-1.187-1.562-2.5-2.708-3.937-3.437a10.263 10.263 0 0 0-4.594-1.063c-1.25 0-2.49.302-3.719.907-1.229.583-1.844 1.541-1.844 2.875 0 .708.271 1.323.813 1.843.521.5 1.177.917 1.969 1.25.77.334 1.593.615 2.468.844.875.25 1.667.458 2.375.625Zm41.813 17.094 2.687 10.781h-9.875c-2.041 0-3.968-.385-5.781-1.156-1.792-.792-3.344-1.865-4.656-3.219-1.313-1.333-2.365-2.906-3.156-4.719-.771-1.791-1.157-3.708-1.157-5.75V21.281l10.782-2.688V35.75h6.281l2.719 10.812h-9v13.906c0 1.146.385 2.105 1.156 2.875.791.792 1.729 1.188 2.812 1.188h7.188Zm48.625-6.313h-34.875a10.514 10.514 0 0 0 2.594 3.688c1.27 1.271 2.677 2.219 4.218 2.844 1.563.625 3.219.937 4.969.937 2.438 0 4.625-.562 6.563-1.687l11.218 4.468a22.967 22.967 0 0 1-7.812 5.907c-3.063 1.395-6.386 2.093-9.969 2.093-3.312 0-6.406-.614-9.281-1.843-2.875-1.23-5.386-2.917-7.531-5.063A23.833 23.833 0 0 1 549.869 62c-1.229-2.875-1.844-5.927-1.844-9.157 0-3.291.615-6.375 1.844-9.25a23.833 23.833 0 0 1 5.094-7.562c2.145-2.146 4.656-3.833 7.531-5.063 2.875-1.229 5.969-1.843 9.281-1.843 3.292 0 6.375.614 9.25 1.843 2.875 1.23 5.385 2.917 7.531 5.063a23.833 23.833 0 0 1 5.094 7.562c1.229 2.875 1.844 5.959 1.844 9.25 0 1.917-.209 3.709-.625 5.375Zm-23.094-18.312c-3.479 0-6.542 1.26-9.187 3.781-1.146 1.125-2.011 2.375-2.594 3.75h23.531c-.583-1.375-1.448-2.625-2.594-3.75-2.521-2.521-5.573-3.781-9.156-3.781Zm39.438-6.125c1.687-1.375 3.593-2.511 5.718-3.406 2.125-.896 4.532-1.344 7.219-1.344v10.781c-3.583 0-6.635 1.261-9.156 3.781-2.521 2.625-3.781 5.677-3.781 9.157v22.562h-10.782V30.281h10.782v3.5Zm56.906-3.406h11.875l-20.875 44.937-2.781 6.125c-1.667 3.646-4.178 6.552-7.532 8.719-3.375 2.146-7.093 3.219-11.156 3.219h-4.781l2.719-10.782h2.593c1.75 0 3.365-.479 4.844-1.437a8.757 8.757 0 0 0 3.344-3.875l.906-1.969L626.4 30.375h11.875l14.906 32.187 14.938-32.187Z"/>
</svg>